<?xml version="1.0" encoding="UTF-8" standalone="no"?>
<!-- Created with Inkscape (http://www.inkscape.org/) -->

<svg
   width="512"
   height="512"
   viewBox="0 0 135.46667 135.46667"
   version="1.1"
   id="svg5"
   inkscape:version="1.3.2 (091e20e, 2023-11-25, custom)"
   sodipodi:docname="FragNikogenia Logo Dark.svg"
   xml:space="preserve"
   inkscape:export-filename="FragNikogenia Logo Dark.png"
   inkscape:export-xdpi="96"
   inkscape:export-ydpi="96"
   xmlns:inkscape="http://www.inkscape.org/namespaces/inkscape"
   xmlns:sodipodi="http://sodipodi.sourceforge.net/DTD/sodipodi-0.dtd"
   xmlns:xlink="http://www.w3.org/1999/xlink"
   xmlns="http://www.w3.org/2000/svg"
   xmlns:svg="http://www.w3.org/2000/svg"><sodipodi:namedview
     id="namedview7"
     pagecolor="#ffffff"
     bordercolor="#000000"
     borderopacity="0.25"
     inkscape:showpageshadow="2"
     inkscape:pageopacity="0.0"
     inkscape:pagecheckerboard="0"
     inkscape:deskcolor="#d1d1d1"
     inkscape:document-units="mm"
     showgrid="false"
     inkscape:zoom="0.79953562"
     inkscape:cx="115.69216"
     inkscape:cy="268.28073"
     inkscape:window-width="1920"
     inkscape:window-height="1009"
     inkscape:window-x="-8"
     inkscape:window-y="-8"
     inkscape:window-maximized="1"
     inkscape:current-layer="layer1" /><defs
     id="defs2"><linearGradient
       id="linearGradient15"
       inkscape:collect="always"><stop
         style="stop-color:#ffe9b9;stop-opacity:1;"
         offset="0"
         id="stop15" /><stop
         style="stop-color:#ffb007;stop-opacity:1;"
         offset="1"
         id="stop16" /></linearGradient><linearGradient
       id="linearGradient1"
       inkscape:collect="always"><stop
         style="stop-color:#494949;stop-opacity:1;"
         offset="0"
         id="stop1" /><stop
         style="stop-color:#000000;stop-opacity:1;"
         offset="1"
         id="stop2" /></linearGradient><radialGradient
       inkscape:collect="always"
       xlink:href="#linearGradient1"
       id="radialGradient2"
       cx="133.25801"
       cy="176.75821"
       fx="133.25801"
       fy="176.75821"
       r="64.034988"
       gradientUnits="userSpaceOnUse"
       gradientTransform="matrix(1.0577549,0,0,1.0577549,-7.6963048,-10.208657)" /><radialGradient
       inkscape:collect="always"
       xlink:href="#linearGradient15"
       id="radialGradient16"
       cx="133.36231"
       cy="176.4799"
       fx="133.36231"
       fy="176.4799"
       r="58.604084"
       gradientTransform="matrix(1,0,0,1.028738,0,-5.0716717)"
       gradientUnits="userSpaceOnUse" /></defs><g
     inkscape:label="Ebene 1"
     inkscape:groupmode="layer"
     id="layer1"
     transform="translate(-65.524683,-109.02487)"><circle
       style="fill:url(#radialGradient2);stroke-width:0.5;stroke-linecap:round;stroke-linejoin:bevel"
       id="path1"
       cx="133.25801"
       cy="176.75821"
       r="67.73333" /><g
       id="g14"
       style="fill:url(#radialGradient16)"><path
         style="opacity:1;fill:url(#radialGradient16);fill-opacity:1;stroke:none;stroke-width:0.385672"
         d="m 125.14173,213.04932 c 0,0 -7.15444,10.25438 -13.16958,18.26958 7.22619,7.21752 29.61588,5.89175 36.89628,3.76828 0.1014,-7.70712 -0.0218,-15.12438 1.15781,-21.1733 -4.76687,-1.41911 -14.30236,-4.29431 -24.88451,-0.86456 z"
         id="path580"
         sodipodi:nodetypes="ccccc" /><path
         style="opacity:1;fill:url(#radialGradient16);fill-opacity:1;stroke:none;stroke-width:0.385672"
         d="m 150.91432,208.67028 c 5.98768,-23.78393 29.31142,-63.13513 32.04859,-65.34157 -5.24491,-7.84506 -12.57371,-14.96072 -16.13956,-14.7498 -4.52471,1.50821 -29.91764,48.23757 -32.85032,54.66142 -2.93271,6.42385 -6.00526,-48.73317 7.37338,-65.51895 -3.60304,-2.05285 -8.76377,-1.89232 -13.25297,-0.39103 -5.42167,1.32233 -35.541395,63.67985 -45.805815,91.26049 3.406376,5.52873 5.142652,7.75111 10.445977,11.11604 9.845448,-32.42645 25.626108,-69.25183 25.961268,-63.97311 0.33519,5.27874 -2.24577,36.89881 6.12095,53.01613 13.77064,-3.98376 25.70748,1.76375 26.0985,-0.0797 z"
         id="path714"
         sodipodi:nodetypes="cccsccccsccc" /><path
         style="opacity:1;fill:url(#radialGradient16);fill-opacity:1;stroke:none;stroke-width:0.385672"
         d="m 77.922407,198.92453 c 14.139606,-48.37035 39.043133,-80.4551 38.594353,-79.88929 -0.44879,0.56584 -55.298182,22.75672 -38.594353,79.88929 z"
         id="path812"
         sodipodi:nodetypes="csc" /><path
         style="fill:url(#radialGradient16);fill-opacity:1;stroke:none;stroke-width:0.385672"
         d="m 159.13628,231.02268 c 0,0 -2.55254,-35.57613 28.3971,-78.17177 18.82505,53.12489 -28.3971,78.17177 -28.3971,78.17177 z"
         id="path355"
         sodipodi:nodetypes="ccc" /></g></g></svg>
