<?xml version="1.0" encoding="UTF-8" standalone="no"?>
<!-- Created with Inkscape (http://www.inkscape.org/) -->

<svg
   width="512"
   height="512"
   viewBox="0 0 135.46667 135.46667"
   version="1.1"
   id="svg5"
   xml:space="preserve"
   xmlns="http://www.w3.org/2000/svg"
   xmlns:svg="http://www.w3.org/2000/svg"><defs
     id="defs2" /><g
     id="layer1"
     transform="translate(-65.524683,-109.02487)"><path
       id="path234-5"
       style="opacity:1;fill:#3270af;fill-opacity:1;stroke:none;stroke-width:0.376047"
       d="m 133.25801,109.02486 a 67.73325,67.73325 0 0 0 -67.733325,67.73334 67.73325,67.73325 0 0 0 67.733325,67.73334 67.73325,67.73325 0 0 0 67.73334,-67.73334 67.73325,67.73325 0 0 0 -67.73334,-67.73334 z m 0,5.92221 a 61.811467,61.811467 0 0 1 61.81202,61.81113 61.811467,61.811467 0 0 1 -61.81202,61.81113 61.811467,61.811467 0 0 1 -61.811125,-61.81113 61.811467,61.811467 0 0 1 61.811125,-61.81113 z" /><path
       style="opacity:1;fill:#3270af;fill-opacity:1;stroke:none;stroke-width:0.34317"
       d="m 126.05768,208.99249 c 0,0 -6.36598,9.1243 -11.71823,16.25619 6.42983,6.4221 26.35207,5.24244 32.83013,3.35299 0.0902,-6.85776 -0.0194,-13.45759 1.03021,-18.8399 -4.24153,-1.26271 -12.72615,-3.82105 -22.14211,-0.76928 z"
       id="path580" /><path
       style="opacity:1;fill:#3270af;fill-opacity:1;stroke:none;stroke-width:0.34317"
       d="m 148.99,205.09605 c 5.3278,-21.16284 26.08115,-56.17732 28.51667,-58.1406 -4.66689,-6.98049 -11.18801,-13.31197 -14.36089,-13.12429 -4.02607,1.34198 -26.62056,42.92153 -29.23005,48.63744 -2.60951,5.7159 -5.34346,-43.36253 6.56079,-58.29843 -3.20595,-1.82661 -7.79796,-1.68377 -11.79242,-0.34792 -4.82417,1.1766 -31.624554,56.66198 -40.757781,81.2031 3.030975,4.91945 4.575905,6.8969 9.294773,9.89101 8.760438,-28.85289 22.801988,-61.61993 23.100208,-56.92295 0.29824,4.69699 -1.99827,32.83237 5.4464,47.17348 12.25304,-3.54473 22.87438,1.56938 23.2223,-0.0709 z"
       id="path714" /><path
       style="opacity:1;fill:#3270af;fill-opacity:1;stroke:none;stroke-width:0.34317"
       d="m 84.042169,196.42433 c 12.581348,-43.03969 34.740381,-71.58855 34.341061,-71.08508 -0.39933,0.50347 -49.204042,20.2488 -34.341061,71.08508 z"
       id="path812" /><path
       style="fill:#3270af;fill-opacity:1;stroke:none;stroke-width:0.34317"
       d="m 156.30586,224.9851 c 0,0 -2.27124,-31.65546 25.26759,-69.55684 16.75044,47.27026 -25.26759,69.55684 -25.26759,69.55684 z"
       id="path355" /></g></svg>
